<?xml version="1.0" standalone="no"?><!DOCTYPE svg PUBLIC "-//W3C//DTD SVG 1.1//EN" "http://www.w3.org/Graphics/SVG/1.1/DTD/svg11.dtd"><svg width="67.25" height="64" viewBox="0 0 67.25 64" version="1.1" xmlns="http://www.w3.org/2000/svg" xmlns:xlink="http://www.w3.org/1999/xlink"><defs><style type="text/css"><![CDATA[
@font-face { font-family: ifont; src: url("//at.alicdn.com/t/font_1442373896_4754455.eot?#iefix") format("embedded-opentype"), url("//at.alicdn.com/t/font_1442373896_4754455.woff") format("woff"), url("//at.alicdn.com/t/font_1442373896_4754455.ttf") format("truetype"), url("//at.alicdn.com/t/font_1442373896_4754455.svg#ifont") format("svg"); }

]]></style></defs><g class="transform-group"><g transform="scale(0.0625, 0.0625)"><path d="M854 66.5h-639c-76.5 0-139.5 63-139.5 139.5v607.5c0 76.5 63 139.5 139.5 139.5h639c76.5 0 139.5-63 139.5-139.5v-607.5c0-76.5-58.5-139.5-139.5-139.5zM926 818c0 40.5-31.5 72-72 72h-639c-40.5 0-72-31.5-72-72v-612c0-40.5 31.5-72 72-72h639c40.5 0 72 31.5 72 72 0 0 0 612 0 612zM413 287l-99 99-45-45c-13.5-13.5-36-13.5-45 0-13.5 13.5-13.5 36 0 45l72 72c4.5 4.5 13.5 9 27 9s13.5-4.5 27-9l121.5-121.5c13.5-13.5 13.5-36 0-45-27-13.5-45-13.5-58.5-4.5zM827 341h-310.5c-22.5 0-31.5 13.5-31.5 31.5 0 22.5 13.5 31.5 31.5 31.5h310.5c22.5 0 31.5-13.5 31.5-31.5s-13.5-31.5-31.5-31.5zM332 543.5c-58.5 0-103.5 45-103.5 103.5s45 103.5 103.5 103.5 103.5-45 103.5-103.5c0-63-49.5-103.5-103.5-103.5zM332 678.5c-22.5 0-36-13.5-36-36s13.5-36 36-36c22.5 0 36 13.5 36 36 0 22.5-18 36-36 36zM827 611h-310.5c-22.5 0-31.5 13.5-31.5 31.5s13.5 31.5 31.5 31.5h310.5c22.5 0 31.5-13.5 31.5-31.5s-13.5-31.5-31.5-31.5z" fill="#56abe4"></path></g></g></svg>