<?xml version="1.0" encoding="utf-8"?>
<!DOCTYPE svg PUBLIC "-//W3C//DTD SVG 1.1//EN" "http://www.w3.org/Graphics/SVG/1.1/DTD/svg11.dtd">
<svg style="width:308px;height:308px;" version="1.1" id="图形" xmlns="http://www.w3.org/2000/svg" xmlns:xlink="http://www.w3.org/1999/xlink" x="0px" y="0px" width="1024px" height="1024px" viewBox="0 0 1024 1024" enable-background="new 0 0 1024 1024" xml:space="preserve">
  <path class="svgpath" data-index="path_0" fill="#272636" d="M768 548.571429 256 548.571429c-18.285714 0-36.571429-14.628571-36.571429-36.571429l0 0c0-18.285714 14.628571-36.571429 36.571429-36.571429l512 0c18.285714 0 36.571429 14.628571 36.571429 36.571429l0 0C804.571429 533.942857 789.942857 548.571429 768 548.571429z" />
<path class="svgpath" data-index="path_1" fill="#272636" d="M512 0C230.4 0 0 230.4 0 512s230.4 512 512 512 512-230.4 512-512S793.6 0 512 0zM512 950.857143C270.628571 950.857143 73.142857 753.371429 73.142857 512S270.628571 73.142857 512 73.142857s438.857143 197.485714 438.857143 438.857143S753.371429 950.857143 512 950.857143z" />

</svg>
