<?xml version="1.0" encoding="utf-8"?>
<!DOCTYPE svg PUBLIC "-//W3C//DTD SVG 1.1//EN" "http://www.w3.org/Graphics/SVG/1.1/DTD/svg11.dtd">
<svg style="width:308px;height:308px;" version="1.1" id="图形" xmlns="http://www.w3.org/2000/svg" xmlns:xlink="http://www.w3.org/1999/xlink" x="0px" y="0px" width="1024px" height="1024px" viewBox="0 0 1024 1024" enable-background="new 0 0 1024 1024" xml:space="preserve">
  <path class="svgpath" data-index="path_0" fill="#c7c636" d="M505.721589 0.008495c-41.765604 0.195577-81.644293 3.754873-116.737339 9.965431C285.611984 28.240391 266.836621 66.464661 266.836621 136.961081l0 93.104489 244.29426 0 0 31.03483L266.837619 261.1004l-91.680571 0c-70.993345 0-133.160793 42.672641-152.611694 123.853936-22.430453 93.050605-23.427295 151.116929 0 248.283626C39.913762 705.557437 81.385004 757.091898 152.379347 757.091898l83.993209 0L236.372556 645.480464c0-80.634478 69.766002-151.761534 152.612692-151.761534l244.006882 0c67.923988 0 122.147629-55.920967 122.147629-124.138321L755.139759 136.962079c0-66.198722-55.851118-115.936073-122.147629-126.987155C591.030949 2.990042 547.487193-0.187081 505.721589 0.008495zM373.610524 74.891422c25.233386 0 45.839786 20.945666 45.839786 46.693938 0 25.660462-20.607398 46.410551-45.839786 46.410551-25.322194 0-45.840784-20.748094-45.840784-46.410551C327.76974 95.83609 348.287332 74.891422 373.610524 74.891422zM785.604822 261.1004l0 108.479212c0 84.108958-71.304671 154.888766-152.612692 154.888766L388.985248 524.468378c-66.838338 0-122.147629 57.202194-122.147629 124.14331l0 232.619529c0 66.196727 57.568402 105.151415 122.147629 124.139318 77.329631 22.741779 151.482139 26.851883 244.006882 0 61.50089-17.813445 122.147629-53.653874 122.147629-124.139318l0-93.105487L511.130881 788.125729 511.130881 757.091898l244.008878 0 122.145633 0c71.003324 0 97.454075-49.523813 122.146631-123.854934 25.50879-76.523376 24.425135-150.115098 0-248.282628-17.545026-70.673038-51.0545-123.852938-122.146631-123.852938l-91.680571 0L785.604822 261.1004zM648.366854 850.195389c25.324189 0 45.841782 20.750089 45.841782 46.409553 0 25.749269-20.51859 46.695933-45.841782 46.695933-25.232388 0-45.838789-20.946664-45.838789-46.695933C602.528065 870.945478 623.134466 850.195389 648.366854 850.195389z" />

</svg>
