<?xml version="1.0" encoding="utf-8"?>
<!DOCTYPE svg PUBLIC "-//W3C//DTD SVG 1.1//EN" "http://www.w3.org/Graphics/SVG/1.1/DTD/svg11.dtd">
<svg style="width:308px;height:308px;" version="1.1" id="图形" xmlns="http://www.w3.org/2000/svg" xmlns:xlink="http://www.w3.org/1999/xlink" x="0px" y="0px" width="1088px" height="1024px" viewBox="0 0 1088 1024" enable-background="new 0 0 1088 1024" xml:space="preserve">
  <path class="svgpath" data-index="path_0" fill="#d6204b" d="M284.718391 718.81139c-2.926419 0-5.85361-0.671941-8.541374-1.937044l-262.573688-125.909385c-6.881603-3.28247-11.232227-10.239763-11.232227-17.833468s4.350625-14.55486 11.232227-17.834241L276.177017 429.387094c5.45508-2.570367 11.784455-2.609757 17.200145 0.03939l259.134431 125.91093c6.800506 3.28247 11.111741 10.200373 11.111741 17.794079s-4.311235 14.471446-11.111741 17.793306L293.337772 716.79325C290.649236 718.139449 287.683427 718.81139 284.718391 718.81139L284.718391 718.81139zM67.896934 573.131493 284.679002 677.053732l213.933655-103.92224L284.679002 469.207708 67.896934 573.131493 67.896934 573.131493zM67.896934 573.131493" />
<path class="svgpath" data-index="path_1" fill="#d6204b" d="M284.718391 1018.119396c-2.965809 0-5.892227-0.672713-8.62247-1.976433l-259.131342-125.90784c-9.847411-4.784683-13.920764-16.608528-9.135308-26.455939 4.784683-9.808021 16.569138-13.919991 26.416549-9.135308L284.718391 976.361739l250.472571-121.717091c9.847411-4.706676 21.671256-0.633324 26.455939 9.135308 4.742977 9.847411 0.669624 21.671256-9.135308 26.455939L293.377162 1016.143735C290.649236 1017.489162 287.683427 1018.119396 284.718391 1018.119396L284.718391 1018.119396zM284.718391 1018.119396" />
<path class="svgpath" data-index="path_2" fill="#d6204b" d="M543.731564 886.437498c-10.915566 0-19.773602-8.858036-19.773602-19.770512l0-290.097009c0-10.912476 8.858036-19.770512 19.773602-19.770512s19.773602 8.858036 19.773602 19.770512l0 290.097009C563.505165 877.618851 554.64713 886.437498 543.731564 886.437498L543.731564 886.437498zM543.731564 886.437498" />
<path class="svgpath" data-index="path_3" fill="#d6204b" d="M19.773602 888.730593c-10.915566 0-19.773602-8.858036-19.773602-19.770512l0-292.390104c0-10.912476 8.858036-19.770512 19.773602-19.770512 10.911704 0 19.76974 8.858036 19.76974 19.770512l0 292.390104C39.543341 879.872557 30.685305 888.730593 19.773602 888.730593L19.773602 888.730593zM19.773602 888.730593" />
<path class="svgpath" data-index="path_4" fill="#d6204b" d="M301.561712 700.538456l2.983572 292.477379-39.540252 0.403937-2.983572-292.478151L301.561712 700.538456 301.561712 700.538456zM301.561712 700.538456" />
<path class="svgpath" data-index="path_5" fill="#d6204b" d="M808.676354 724.69126c-2.926419 0-5.852838-0.671941-8.541374-1.937044L537.562064 596.844831c-6.881603-3.28247-11.232227-10.239763-11.232227-17.833468s4.350625-14.55486 11.232227-17.834241L800.13498 435.266964c5.45508-2.570367 11.784455-2.609757 17.200145 0.03939l259.134431 125.91093c6.800506 3.28247 11.111741 10.200373 11.111741 17.794079s-4.311235 14.471446-11.111741 17.793306L817.295735 722.67312C814.607971 724.019319 811.642162 724.69126 808.676354 724.69126L808.676354 724.69126zM591.855669 579.011362 808.636964 682.933602 1022.570619 579.011362 808.636964 475.08835 591.855669 579.011362 591.855669 579.011362zM591.855669 579.011362" />
<path class="svgpath" data-index="path_6" fill="#d6204b" d="M808.676354 1024.000039c-2.965809 0-5.892227-0.672713-8.62247-1.976433L540.922542 896.116537c-9.847411-4.784683-13.919991-16.608528-9.135308-26.455939 4.784683-9.808021 16.569138-13.919991 26.416549-9.135308l250.472571 121.717091 250.472571-121.717091c9.847411-4.706676 21.671256-0.633324 26.455939 9.135308 4.742977 9.847411 0.669624 21.671256-9.135308 26.455939L817.335124 1022.023605C814.607971 1023.369032 811.642162 1024.000039 808.676354 1024.000039L808.676354 1024.000039zM808.676354 1024.000039" />
<path class="svgpath" data-index="path_7" fill="#d6204b" d="M1067.689526 892.31814c-10.915566 0-19.773602-8.858036-19.773602-19.770512l0-290.097009c0-10.912476 8.858036-19.770512 19.773602-19.770512S1087.463128 571.538143 1087.463128 582.449847l0 290.097009C1087.463128 883.499494 1078.605092 892.31814 1067.689526 892.31814L1067.689526 892.31814zM1067.689526 892.31814" />
<path class="svgpath" data-index="path_8" fill="#d6204b" d="M543.731564 894.610463c-10.915566 0-19.773602-8.858036-19.773602-19.770512l0-292.390104c0-10.912476 8.858036-19.770512 19.773602-19.770512 10.912476 0 19.770512 8.858036 19.770512 19.770512l0 292.390104C563.502076 885.753199 554.64404 894.610463 543.731564 894.610463L543.731564 894.610463zM543.731564 894.610463" />
<path class="svgpath" data-index="path_9" fill="#d6204b" d="M825.520447 706.418326l2.983572 292.477379-39.540252 0.403937L785.979423 706.822263 825.520447 706.418326 825.520447 706.418326zM825.520447 706.418326" />
<path class="svgpath" data-index="path_10" fill="#d6204b" d="M532.688561 291.361918c-2.926419 0-5.852838-0.671941-8.541374-1.937044L261.574272 163.51549c-6.881603-3.28247-11.232227-10.239763-11.232227-17.833468s4.350625-14.55486 11.232227-17.834241l262.573688-125.910157c5.45508-2.570367 11.784455-2.609757 17.200145 0.03939l259.134431 125.91093c6.800506 3.28247 11.111741 10.200373 11.111741 17.794079s-4.311235 14.471446-11.111741 17.793306L541.307942 289.343778C538.620178 290.689977 535.65437 291.361918 532.688561 291.361918L532.688561 291.361918zM315.867877 145.682021l216.782067 103.92224L746.583599 145.682021 532.649172 41.758237 315.867877 145.682021 315.867877 145.682021zM315.867877 145.682021" />
<path class="svgpath" data-index="path_11" fill="#d6204b" d="M532.688561 590.669925c-2.965809 0-5.892227-0.672713-8.62247-1.976433l-259.131342-125.90784c-9.847411-4.784683-13.919991-16.608528-9.135308-26.455939 4.784683-9.808021 16.569138-13.919991 26.416549-9.135308l250.472571 121.717091 250.472571-121.717091c9.847411-4.706676 21.671256-0.633324 26.455939 9.135308 4.742977 9.847411 0.669624 21.671256-9.135308 26.455939l-259.134431 125.90784C538.620178 590.039691 535.65437 590.669925 532.688561 590.669925L532.688561 590.669925zM532.688561 590.669925" />
<path class="svgpath" data-index="path_12" fill="#d6204b" d="M791.702506 458.988026c-10.915566 0-19.773602-8.858036-19.773602-19.770512l0-290.097009c0-10.912476 8.858036-19.770512 19.773602-19.770512s19.773602 8.858036 19.773602 19.770512l0 290.097009C811.475335 450.16938 802.617299 458.988026 791.702506 458.988026L791.702506 458.988026zM791.702506 458.988026" />
<path class="svgpath" data-index="path_13" fill="#d6204b" d="M267.743772 461.281121c-10.915566 0-19.773602-8.858036-19.773602-19.770512l0-292.390104c0-10.912476 8.858036-19.770512 19.773602-19.770512 10.912476 0 19.770512 8.858036 19.770512 19.770512l0 292.390104C287.514284 452.423085 278.656248 461.281121 267.743772 461.281121L267.743772 461.281121zM267.743772 461.281121" />
<path class="svgpath" data-index="path_14" fill="#d6204b" d="M549.532655 273.088985l2.983572 292.477379-39.540252 0.403937-2.983572-292.478151L549.532655 273.088985 549.532655 273.088985zM549.532655 273.088985" />

</svg>
