<?xml version="1.0" encoding="utf-8"?>
<!DOCTYPE svg PUBLIC "-//W3C//DTD SVG 1.1//EN" "http://www.w3.org/Graphics/SVG/1.1/DTD/svg11.dtd">
<svg style="width:308px;height:308px;" version="1.1" id="图形" xmlns="http://www.w3.org/2000/svg" xmlns:xlink="http://www.w3.org/1999/xlink" x="0px" y="0px" width="1024px" height="1024px" viewBox="0 0 1024 1024" enable-background="new 0 0 1024 1024" xml:space="preserve">
  <path class="svgpath" data-index="path_0" fill="#2aa515" d="M563.66673 622.521163 460.293361 622.521163 460.293361 770.470773 324.387042 770.470773 512 958.029496 699.622168 770.470773 563.66673 770.470773Z" />
<path class="svgpath" data-index="path_1" fill="#2aa515" d="M460.293361 401.484977 563.66673 401.484977 563.66673 253.54253 699.622168 253.54253 512 65.969481 324.387042 253.54253 460.293361 253.54253Z" />
<path class="svgpath" data-index="path_2" fill="#2aa515" d="M958.033589 512.00307 770.46054 324.381925 770.46054 460.309734 622.503766 460.309734 622.503766 563.696406 770.46054 563.696406 770.46054 699.631378Z" />
<path class="svgpath" data-index="path_3" fill="#2aa515" d="M401.454278 563.696406 401.454278 460.309734 253.546623 460.309734 253.546623 324.381925 65.966411 512.00307 253.546623 699.631378 253.546623 563.696406Z" />

</svg>
