<?xml version="1.0" encoding="utf-8"?>
<!DOCTYPE svg PUBLIC "-//W3C//DTD SVG 1.1//EN" "http://www.w3.org/Graphics/SVG/1.1/DTD/svg11.dtd">
<svg style="width:308px;height:308px;" version="1.1" id="图形" xmlns="http://www.w3.org/2000/svg" xmlns:xlink="http://www.w3.org/1999/xlink" x="0px" y="0px" width="1024px" height="1024px" viewBox="0 0 1024 1024" enable-background="new 0 0 1024 1024" xml:space="preserve">
  <path class="svgpath" data-index="path_0" fill="#095ca2" d="M378.865499 234.886557q-6.271176 0.575924-8.862835 6.015209t-4.863361 5.439285q-2.847626 0.575924-2.847626-2.847626 0-6.8471 10.846574-8.574873l5.727247 0zM428.586964 242.885505q-2.271701 0.575924-6.559138-3.711512t-10.014684-2.559664q13.726196-6.271176 18.269599 1.151849 1.727773 3.42355-1.727773 5.151323zM228.037323 486.853439q-2.271701-0.575924-3.42355 1.727773t-2.559664 7.135062-3.135588 7.710986-5.727247 7.423024q-3.999474 5.727247-0.575924 6.8471 2.271701 0.575924 7.135062-3.999474t7.135062-10.27065q0.575924-1.727773 1.151849-3.999474t1.151849-3.42355 0.863886-2.559664 0.287962-2.271701l0-1.727773t-0.575924-1.439811-1.727773-1.151849zM716.549115 691.978478q0-10.27065-31.41987-23.996846 2.271701-8.574873 4.287436-15.709935t2.847626-14.846049 1.727773-12.286385 0.287962-12.862309-0.575924-11.134537-2.015735-12.574347-2.271701-11.710461-2.847626-14.270124-3.135588-15.134011q-5.727247-27.420396-26.844472-58.840266t-41.146592-42.842369q13.726196 11.422499 32.571719 47.417768 49.721465 92.563834 30.843946 158.827124-6.271176 22.844997-28.572245 23.996846-17.72567 2.271701-22.013107-10.558612t-4.575399-47.70573-6.559138-61.143963q-5.151323-22.269073-11.134537-39.418819t-11.134537-26.012581-8.862835-14.014158-7.423024-8.574873-4.287436-3.999474q-7.998949-35.419345-17.72567-58.840266t-16.861784-31.995795-13.438234-18.845523-8.574873-22.844997q-2.271701-11.998423 3.42355-30.555984t2.559664-28.284282-25.436657-14.270124q-8.574873-1.727773-25.436657-10.27065t-20.285334-9.150797q-4.575399-0.575924-6.271176-14.846049t4.575399-29.148169 20.573296-15.421973q21.14922-1.727773 29.148169 17.149746t2.271701 33.147643q-6.271176 10.846574-1.151849 15.134011t17.149746 0.287962q7.423024-2.271701 7.423024-20.573296l0-21.14922q-2.847626-17.149746-7.710986-28.572245t-11.998423-17.437708-13.438234-8.574873-15.421973-4.287436q-61.143963 4.575399-50.841318 76.565936 0 8.574873-0.575924 8.574873-5.151323-5.151323-16.861784-6.015209t-18.845523 0.287962-8.862835-2.847626q0.575924-32.571719-9.150797-51.417242t-25.724619-19.421447q-15.421973-0.575924-23.708884 15.709935t-9.438759 34.01153q-0.575924 8.574873 2.015735 21.14922t7.423024 21.437182 8.862835 7.710986q5.727247-1.727773 9.150797-7.998949 2.271701-5.151323-3.999474-4.575399-3.999474 0-8.862835-8.286911t-5.439285-19.133485q-0.575924-12.574347 5.151323-21.14922t19.421447-7.998949q9.726722 0 15.421973 11.998423t5.439285 22.269073-0.863886 12.574347q-12.574347 8.574873-17.72567 16.573822-4.575399 6.8471-15.709935 13.438234t-11.710461 7.135062q-7.423024 7.998949-8.862835 15.421973t4.287436 10.27065q7.998949 4.575399 14.270124 11.134537t9.150797 10.846574 10.558612 7.423024 20.285334 3.711512q26.844472 1.151849 58.264342-8.574873 1.151849-0.575924 13.150272-3.999474t19.709409-6.015209 16.861784-7.423024 11.998423-10.014684q5.151323-7.998949 11.422499-4.575399 2.847626 1.727773 3.711512 4.863361t-1.727773 6.8471-9.438759 5.439285q-11.422499 3.42355-32.283757 12.286385t-26.012581 11.134537q-25.148695 10.846574-39.994743 13.150272-14.270124 2.847626-45.146066-1.151849-5.727247-1.151849-5.151323 1.151849t9.726722 10.846574q14.270124 13.150272 38.26697 12.574347 9.726722-0.575924 20.573296-3.999474t20.573296-7.998949 19.133485-10.014684 17.149746-9.726722 14.014158-6.8471 10.014684-1.439811 4.863361 6.271176q0 1.151849-0.575924 2.559664t-2.271701 2.847626-3.42355 2.559664-4.863361 2.847626-5.151323 2.559664-5.727247 2.847626-5.439285 2.559664q-15.997897 7.998949-38.554932 25.148695t-38.011004 24.57277-27.99632 0.575924q-11.998423-6.271176-35.995269-41.722516-12.574347-17.72567-14.270124-12.574347-0.575924 1.727773-0.575924 5.727247 0 14.270124-8.574873 32.283757t-16.861784 31.707832-11.998423 33.147643 6.559138 35.995269q-13.150272 3.42355-35.707307 51.417242t-27.132434 80.565411q-1.151849 10.27065-0.863886 39.418819t-3.135588 33.723567q-4.575399 13.726196-16.573822 1.727773-18.269599-17.72567-20.573296-53.720939-1.151849-15.997897 2.271701-31.995795 2.271701-10.846574-0.575924-10.27065l-2.271701 2.847626q-20.573296 37.147117 5.727247 94.835535 2.847626 6.8471 14.270124 15.997897t13.726196 11.422499q11.422499 13.150272 59.41619 51.705204t53.145015 43.706255q9.150797 8.574873 10.014684 21.725145t-7.998949 24.57277-26.012581 13.150272q4.575399 8.574873 16.573822 25.436657t15.997897 30.843946 3.999474 40.282705q26.268547-13.726196 3.999474-52.56909-2.271701-4.575399-6.015209-9.150797t-5.439285-6.8471-1.151849-3.42355q1.727773-2.847626 7.423024-5.439285t11.422499 1.439811q26.268547 29.724093 94.835535 20.573296 75.990012-8.574873 101.138707-49.721465 13.150272-21.725145 19.421447-17.149746 6.8471 3.42355 5.727247 29.724093-0.575924 14.270124-13.150272 52.56909-5.151323 13.150272-3.42355 21.437182t13.726196 8.862835q1.727773-10.846574 8.286911-43.994218t7.710986-51.417242q1.151849-11.998423-3.711512-42.010478t-4.287436-55.416716 13.150272-40.282705q8.574873-10.27065 29.148169-10.27065 0.575924-21.14922 19.709409-30.268022t41.434554-6.015209 34.267496 12.862309zM357.748274 219.464584q1.727773-9.726722-1.439811-17.149746t-6.559138-8.574873q-5.151323-1.151849-5.151323 3.999474 1.151849 2.847626 2.847626 3.42355 5.727247 0 3.999474 8.574873-1.727773 11.422499 4.575399 11.422499 1.727773 0 1.727773-1.727773zM597.140809 332.025789q-1.151849-4.575399-3.711512-6.559138t-7.423024-2.847626-8.286911-3.135588q-2.847626-1.727773-5.439285-4.575399t-3.999474-4.575399-3.135588-3.711512-2.271701-2.271701-2.271701 0.863886q-7.998949 9.150797 3.999474 24.860732t22.269073 18.013632q5.151323 0.575924 8.286911-4.575399t2.015735-11.422499zM495.426178 210.313786q0-6.271176-2.847626-11.134537t-6.271176-7.135062-5.151323-1.727773q-7.998949 0.575924-3.999474 3.999474l2.271701 1.151849q7.998949 2.271701 10.27065 17.72567 0 1.727773 4.575399-1.151849zM526.270124 77.211281q0-1.151849-1.439811-2.847626t-5.151323-3.999474-5.439285-3.42355q-8.574873-8.574873-13.726196-8.574873-5.151323 0.575924-6.559138 4.287436t-0.575924 7.423024-0.287962 7.135062q-0.575924 2.271701-3.42355 6.015209t-3.42355 5.151323 1.727773 4.863361q2.271701 1.727773 4.575399 0t6.271176-5.151323 8.574873-5.151323q0.575924-0.575924 5.151323-0.575924t8.574873-1.151849 5.151323-3.999474zM849.107691 843.382578q11.422499 6.8471 17.72567 14.014158t6.8471 13.726196-1.439811 12.862309-8.862835 12.574347-13.438234 11.134537-17.149746 10.558612-18.013632 9.438759-18.269599 8.862835-15.421973 7.423024q-21.725145 10.846574-48.857578 31.995795t-43.130331 36.571193q-9.726722 9.150797-38.842895 11.134537t-50.841318-8.286911q-10.27065-5.151323-16.861784-13.438234t-9.438759-14.558087-12.574347-11.134537-26.844472-5.439285q-25.148695-0.575924-74.262239-0.575924-10.846574 0-32.571719 0.863886t-33.147643 1.439811q-25.148695 0.575924-45.434028 8.574873t-30.555984 17.149746-24.860732 16.285859-30.555984 6.559138q-16.573822-0.575924-63.415665-17.72567t-83.413036-24.57277q-10.846574-2.271701-29.148169-5.439285t-28.572245-5.151323-22.557035-5.439285-19.133485-8.286911-9.726722-11.134537q-5.727247-13.150272 3.999474-38.011004t10.27065-31.131908q0.575924-9.150797-2.271701-22.844997t-5.727247-24.284808-2.559664-20.861258 6.015209-15.421973q7.998949-6.8471 32.571719-7.998949t34.267496-6.8471q17.149746-10.27065 23.996846-19.997372t6.8471-29.148169q11.998423 41.722516-18.269599 60.568039-18.269599 11.422499-47.417768 8.574873-19.421447-1.727773-24.57277 5.727247-7.423024 8.574873 2.847626 32.571719 1.151849 3.42355 4.575399 10.27065t4.863361 10.27065 2.559664 9.726722 0.575924 12.574347q0 8.574873-9.726722 27.99632t-7.998949 27.420396q1.727773 9.726722 21.14922 14.846049 11.422499 3.42355 48.281654 10.558612t56.856527 11.710461q13.726196 3.42355 42.266445 12.574347t47.129805 13.150272 31.707832 2.271701q24.57277-3.42355 36.859155-15.997897t13.150272-27.420396-4.287436-33.435605-10.846574-29.724093-11.422499-20.861258q-69.142912-108.561731-96.563308-138.253828-38.842895-42.266445-64.567513-22.844997-6.271176 5.151323-8.574873-8.574873-1.727773-9.150797-1.151849-21.725145 0.575924-16.573822 5.727247-29.724093t13.726196-26.844472 12.574347-23.996846q4.575399-11.998423 15.134011-41.146592t16.861784-44.570142 17.149746-34.84342 22.269073-30.843946q62.839741-81.717259 70.838689-111.409357-6.8471-63.991589-9.150797-177.128719-1.151849-51.417242 13.726196-86.548624t60.568039-59.704153q22.269073-11.998423 59.41619-11.998423 30.268022-0.575924 60.568039 7.710986t50.841318 23.708884q32.571719 23.996846 52.281128 69.430874t16.861784 84.276923q-2.847626 54.264868 17.149746 122.255931 19.421447 64.567513 75.990012 124.559628 31.41987 33.723567 56.856527 93.139758t34.01153 109.137655q4.575399 27.99632 2.847626 48.281654t-6.8471 31.707832-11.422499 12.574347q-5.727247 1.151849-13.438234 10.846574t-15.421973 20.285334-23.132959 19.133485-34.84342 7.998949q-10.27065-0.575924-18.013632-2.847626t-12.862309-7.710986-7.710986-8.862835-6.559138-11.710461-5.151323-11.134537q-12.574347-21.14922-23.420922-17.149746t-15.997897 27.99632 3.999474 55.416716q11.422499 39.994743 0.575924 111.409357-5.727247 37.147117 10.27065 57.432451t41.722516 18.845523 48.569616-20.285334q33.723567-27.99632 51.12928-38.011004t59.128228-24.284808q30.268022-10.27065 43.994218-20.861258t10.558612-19.709409-14.270124-16.285859-29.436131-13.438234q-18.845523-6.271176-28.284282-27.420396t-8.574873-41.434554 8.862835-27.132434q0.575924 17.72567 4.575399 32.283757t8.286911 23.132959 11.710461 16.285859 11.998423 10.846574 12.286385 7.423024 9.438759 5.439285z" />

</svg>
