<?xml version="1.0" encoding="utf-8"?>
<!DOCTYPE svg PUBLIC "-//W3C//DTD SVG 1.1//EN" "http://www.w3.org/Graphics/SVG/1.1/DTD/svg11.dtd">
<svg style="width:308px;height:308px;" version="1.1" id="图形" xmlns="http://www.w3.org/2000/svg" xmlns:xlink="http://www.w3.org/1999/xlink" x="0px" y="0px" width="1024px" height="1024px" viewBox="0 0 1024 1024" enable-background="new 0 0 1024 1024" xml:space="preserve">
  <path class="svgpath" data-index="path_0" fill="#e89abe" d="M512 65.745377c-246.459205 0-446.254623 199.794395-446.254623 446.254623s199.794395 446.254623 446.254623 446.254623 446.254623-199.794395 446.254623-446.254623S758.459205 65.745377 512 65.745377zM512 888.349507c-207.851908 0-376.349507-168.497599-376.349507-376.349507s168.497599-376.349507 376.349507-376.349507 376.349507 168.497599 376.349507 376.349507S719.851908 888.349507 512 888.349507z" />
<path class="svgpath" data-index="path_1" fill="#e89abe" d="M521.81146 508.822634c-3.830235 99.603509-58.751079 151.321404-164.729785 155.152662-104.722086-6.404873-159.641907-58.093093-164.729785-155.152662 5.087878-103.434767 60.636009-157.068292 166.645414-160.898527C462.432071 351.754343 516.693906 405.387867 521.81146 508.822634zM426.038186 508.822634c-1.287319-57.46376-24.901133-86.824461-70.872141-88.110757-44.714388 0-67.040882 29.390377-67.040882 88.110757 1.257643 56.20714 23.613814 84.938508 67.040882 86.196151C402.393673 595.018785 426.038186 566.286394 426.038186 508.822634z" />
<path class="svgpath" data-index="path_2" fill="#e89abe" d="M529.856693 572.033281l93.857645-11.492752c6.374174 26.816762 27.445072 40.225143 63.209624 40.225143 34.478256 0 51.718919-10.206456 51.718919-30.646997 2.543939-14.036691-17.897625-25.529443-61.296041-34.478256-21.726837-3.830235-44.054355-8.918114-67.040882-15.32401-45.971008-14.036691-69.614497-40.225143-70.872141-78.533634 1.257643-61.295018 45.313022-92.570325 132.166135-93.857645 81.706907-2.543939 131.509173 24.901133 149.406798 82.364893l-95.773274 9.577123c-3.831258-20.411889-19.812231-30.646997-47.88766-30.646997-25.559119 0-38.9675 9.577123-40.225143 28.732391-1.285273 12.780071 12.122085 22.357194 40.225143 28.732391 10.207479 2.573615 27.445072 6.404873 51.718919 11.492752 7.66047 1.286296 13.407358 2.573615 17.238616 3.831258 58.722426 12.780071 86.825484 43.427068 84.280522 91.942015-1.287319 60.008722-46.630017 90.027409-135.997394 90.027409C594.981946 669.063175 540.062126 638.415155 529.856693 572.033281z" />

</svg>
