<?xml version="1.0" standalone="no"?><!DOCTYPE svg PUBLIC "-//W3C//DTD SVG 1.1//EN" "http://www.w3.org/Graphics/SVG/1.1/DTD/svg11.dtd"><svg width="64" height="64" viewBox="0 0 64 64" version="1.1" xmlns="http://www.w3.org/2000/svg" xmlns:xlink="http://www.w3.org/1999/xlink"><defs><style type="text/css"><![CDATA[
@font-face { font-family: ifont; src: url("//at.alicdn.com/t/font_1442373896_4754455.eot?#iefix") format("embedded-opentype"), url("//at.alicdn.com/t/font_1442373896_4754455.woff") format("woff"), url("//at.alicdn.com/t/font_1442373896_4754455.ttf") format("truetype"), url("//at.alicdn.com/t/font_1442373896_4754455.svg#ifont") format("svg"); }

]]></style></defs><g class="transform-group"><g transform="scale(0.0625, 0.0625)"><path d="M730.61709 591.434144c-13.516852 0-26.495444 2.267647-38.675858 6.306636L575.568804 416.180678c28.567639-22.595624 46.991244-57.479109 46.991244-96.647177 0-67.967998-55.290257-123.265418-123.258255-123.265418s-123.265418 55.298444-123.265418 123.265418c0 44.360324 23.636327 83.20605 58.895365 104.921631L323.087443 598.951351c-13.125949-4.776793-27.219945-7.517207-41.977044-7.517207-67.967998 0-123.265418 55.298444-123.265418 123.265418s55.298444 123.265418 123.265418 123.265418 123.258255-55.298444 123.258255-123.265418c0-31.241538-11.776208-59.719126-31.001061-81.46643l122.181737-190.624549c1.257643 0.037862 2.485611 0.190335 3.753487 0.190335 6.804986 0 13.43601-0.698918 19.945261-1.765203l121.502261 189.56645c-20.647249 22.049179-33.397644 51.580772-33.397644 84.099397 0 67.967998 55.298444 123.265418 123.265418 123.265418s123.258255-55.298444 123.258255-123.265418S798.585087 591.434144 730.61709 591.434144zM281.110399 777.12738c-34.421974 0-62.427818-27.997658-62.427818-62.427818s28.005844-62.427818 62.427818-62.427818 62.419631 27.997658 62.419631 62.427818S315.532373 777.12738 281.110399 777.12738zM499.302817 257.105682c34.421974 0 62.419631 27.997658 62.419631 62.427818s-27.997658 62.427818-62.419631 62.427818-62.427818-27.997658-62.427818-62.427818S464.879819 257.105682 499.302817 257.105682zM730.61709 777.12738c-34.421974 0-62.427818-27.997658-62.427818-62.427818s28.005844-62.427818 62.427818-62.427818 62.419631 27.997658 62.419631 62.427818S765.039064 777.12738 730.61709 777.12738z" fill="#9d55b8"></path></g></g></svg>