<?xml version="1.0" standalone="no"?><!DOCTYPE svg PUBLIC "-//W3C//DTD SVG 1.1//EN" "http://www.w3.org/Graphics/SVG/1.1/DTD/svg11.dtd"><svg width="64" height="64" viewBox="0 0 64 64" version="1.1" xmlns="http://www.w3.org/2000/svg" xmlns:xlink="http://www.w3.org/1999/xlink"><defs><style type="text/css"><![CDATA[
@font-face { font-family: ifont; src: url("//at.alicdn.com/t/font_1442373896_4754455.eot?#iefix") format("embedded-opentype"), url("//at.alicdn.com/t/font_1442373896_4754455.woff") format("woff"), url("//at.alicdn.com/t/font_1442373896_4754455.ttf") format("truetype"), url("//at.alicdn.com/t/font_1442373896_4754455.svg#ifont") format("svg"); }

]]></style></defs><g class="transform-group"><g transform="scale(0.0625, 0.0625)"><path d="M429.691389 385.40679c0-40.331567 33.340339-73.147974 74.321706-73.147974 40.964994 0 74.293053 32.816406 74.293053 73.147974 0 40.337707-33.329083 73.15309-74.293053 73.15309C463.031728 458.560904 429.691389 425.744497 429.691389 385.40679zM664.22703 766.383688 519.604188 766.383688 519.604188 488.010633c50.783617-7.455809 89.906659-50.554396 89.906659-102.603843 0-57.271378-47.326888-103.869672-105.496729-103.869672-58.187237 0-105.528452 46.599318-105.528452 103.869672 0 52.03512 39.123043 95.139847 89.912799 102.603843l0 278.373055L343.774601 766.383688c-8.621355 0-15.604396 6.876618-15.604396 15.360849 0 8.487302 6.983041 15.360849 15.604396 15.360849l320.452429 0c8.615215 0 15.604396-6.874571 15.604396-15.360849C679.831426 773.261329 672.843268 766.383688 664.22703 766.383688zM770.846326 683.160241c-40.97011 0-74.305333-32.818453-74.305333-73.167416 0-40.326451 33.334199-73.136717 74.305333-73.136717 40.97011 0 74.302263 32.810267 74.302263 73.136717C845.148589 650.340765 811.81746 683.160241 770.846326 683.160241zM770.846326 506.136455c-52.862975 0-96.649224 38.510082-104.22476 88.502683l-92.691075 0c-8.618285 0-15.604396 6.874571-15.604396 15.360849 0 8.484232 6.986111 15.360849 15.604396 15.360849l92.691075 0c7.581676 50.006927 51.361785 88.520079 104.22476 88.520079 58.172911 0 105.507986-46.599318 105.507986-103.890138C876.355335 552.726563 829.02026 506.136455 770.846326 506.136455zM237.155305 683.147962c-40.97318 0-74.305333-32.821523-74.305333-73.167416 0-40.326451 33.331129-73.136717 74.305333-73.136717 40.968064 0 74.302263 32.810267 74.302263 73.136717C311.457568 650.326439 278.123368 683.147962 237.155305 683.147962zM434.06807 625.350604c8.618285 0 15.604396-6.877641 15.604396-15.360849 0-8.487302-6.986111-15.360849-15.604396-15.360849l-92.691075 0c-7.575536-49.992601-51.361785-88.505753-104.222713-88.505753-58.179051 0-105.511056 46.590108-105.511056 103.858416 0 57.285704 47.332005 103.890138 105.511056 103.890138 52.859905 0 96.641037-38.513152 104.222713-88.520079L434.06807 625.351628z" fill="#f4c600"></path></g></g></svg>