<?xml version="1.0" encoding="utf-8"?>
<!DOCTYPE svg PUBLIC "-//W3C//DTD SVG 1.1//EN" "http://www.w3.org/Graphics/SVG/1.1/DTD/svg11.dtd">
<svg style="width:308px;height:308px;" version="1.1" id="图形" xmlns="http://www.w3.org/2000/svg" xmlns:xlink="http://www.w3.org/1999/xlink" x="0px" y="0px" width="1024px" height="1024px" viewBox="0 0 1024 1024" enable-background="new 0 0 1024 1024" xml:space="preserve">
  <path class="svgpath" data-index="path_0" fill="#0b988f" d="M936.06167 512.021489c0-37.227879-30.178323-67.407226-67.396993-67.407226-37.237089 0-67.416436 30.179346-67.416436 67.407226 0 27.942399 17.003256 51.912323 41.23003 62.132082-12.291954 66.140373-44.154639 127.002532-92.75452 175.602414-63.501266 63.503313-147.928121 98.474802-237.72631 98.474802-122.888841 0-235.954967-67.062372-295.076482-175.017082-5.429663-9.91379-17.86795-13.549597-27.780717-8.120958-9.91379 5.429663-13.549597 17.86795-8.119935 27.780717 66.306148 121.075543 193.128579 196.288548 330.977134 196.288548 50.901297 0 100.292194-9.974166 146.799414-29.647227 44.911886-18.996656 85.241406-46.187949 119.870088-80.817654 34.629705-34.629705 61.819974-74.961272 80.81663-119.873158 11.07422-26.182312 19.075451-53.277414 23.953551-81.042781C913.547911 571.044768 936.06167 544.1707 936.06167 512.021489z" />
<path class="svgpath" data-index="path_1" fill="#0b988f" d="M222.731292 512.021489c0-27.946492-17.006326-51.918463-41.231053-62.136176 12.291954-66.13935 44.156686-127.000486 92.755544-175.59832 63.503313-63.502289 147.935284-98.474802 237.742682-98.474802 122.877585 0 235.936547 67.062372 295.058063 175.016059 5.430686 9.914814 17.869996 13.547551 27.780717 8.119935 9.91379-5.428639 13.549597-17.866926 8.120958-27.780717-66.307172-121.074519-193.123462-196.287525-330.959737-196.287525-50.906413 0-100.30038 9.975189-146.81067 29.646204-44.912909 18.996656-85.244476 46.186925-119.875205 80.817654-34.629705 34.628682-61.820997 74.960249-80.817654 119.872135-11.07422 26.182312-19.075451 53.279461-23.954575 81.044828-30.116925 6.744611-52.623521 33.615609-52.623521 65.759703 0 37.226856 30.179346 67.407226 67.417459 67.407226C192.552969 579.428715 222.731292 549.248346 222.731292 512.021489z" />
<path class="svgpath" data-index="path_2" fill="#0b988f" d="M428.981726 530.110473c0-53.29788-35.858696-72.947406-69.756737-72.947406-50.098002 0-74.65735 31.689746-74.65735 68.778456 0 37.087687 24.559349 68.766177 74.65735 68.766177 25.539676 0 53.7993-12.769838 66.318428-43.469024l-26.03905 0c-8.599865 18.419512-27.499307 22.839171-41.497113 22.839171-21.859867 0-45.438888-13.998829-47.420009-40.778752l118.395504 0L428.98275 530.110473zM311.32812 514.15099c3.939729-22.849404 24.078395-36.358069 46.678112-36.358069 23.078625 0 41.017182 13.018501 44.938492 36.358069L311.32812 514.15099z" />
<path class="svgpath" data-index="path_3" fill="#0b988f" d="M470.341716 590.289064 511.100002 541.410843 551.637254 590.289064 586.015226 590.289064 528.059256 523.731182 582.096986 461.584774 549.417703 461.584774 512.099772 505.801834 475.501226 461.584774 442.083116 461.584774 495.140519 523.731182 437.923376 590.289064Z" />
<path class="svgpath" data-index="path_4" fill="#0b988f" d="M738.630089 530.110473c0-53.29788-35.858696-72.947406-69.756737-72.947406-50.098002 0-74.65735 31.689746-74.65735 68.778456 0 37.087687 24.559349 68.766177 74.65735 68.766177 25.537629 0 53.797253-12.769838 66.316381-43.469024l-26.037003 0c-8.599865 18.419512-27.499307 22.839171-41.49916 22.839171-21.85782 0-45.436842-13.998829-47.397496-40.778752l118.375038 0L738.631112 530.110473zM620.976482 514.15099c3.939729-22.849404 24.076348-36.358069 46.676066-36.358069 23.079648 0 41.018206 13.018501 44.938492 36.358069L620.976482 514.15099z" />

</svg>
