<?xml version="1.0" standalone="no"?><!DOCTYPE svg PUBLIC "-//W3C//DTD SVG 1.1//EN" "http://www.w3.org/Graphics/SVG/1.1/DTD/svg11.dtd"><svg width="64" height="64" viewBox="0 0 64 64" version="1.1" xmlns="http://www.w3.org/2000/svg" xmlns:xlink="http://www.w3.org/1999/xlink"><defs><style type="text/css"><![CDATA[
@font-face { font-family: ifont; src: url("//at.alicdn.com/t/font_1442373896_4754455.eot?#iefix") format("embedded-opentype"), url("//at.alicdn.com/t/font_1442373896_4754455.woff") format("woff"), url("//at.alicdn.com/t/font_1442373896_4754455.ttf") format("truetype"), url("//at.alicdn.com/t/font_1442373896_4754455.svg#ifont") format("svg"); }

]]></style></defs><g class="transform-group"><g transform="scale(0.0625, 0.0625)"><path d="M903.071302 258.054287c-28.16855 0-51.002604 22.835078-51.002604 51.003628 0 14.3488 5.934153 27.305903 15.471366 36.572964l-129.438001 180.941002c-6.771217-3.324722-14.386662-5.197372-22.439058-5.197372-24.485671 0-44.930305 17.256012-49.862641 40.268122l-192.666044-46.270836c0.363274-2.452865 0.555655-4.962012 0.555655-7.516184 0-28.16855-22.834055-51.004651-51.002604-51.004651s-51.003628 22.835078-51.003628 51.004651c0 10.024308 2.90312 19.365046 7.899924 27.250644L163.912675 698.673563c-9.337669-11.892865-23.834848-19.543102-40.127929-19.543102-28.16855 0-51.003628 22.835078-51.003628 51.004651 0 28.166503 22.835078 51.003628 51.003628 51.003628s51.003628-22.836101 51.003628-51.003628c0-6.735401-1.319042-13.160741-3.691065-19.047822l217.71351-165.116595c9.009188 8.012488 20.871353 12.889565 33.876552 12.889565 20.609387 0 38.350446-12.231579 46.394656-29.823236l195.721637 47.004547c1.879813 26.456558 23.921829 47.341215 50.858318 47.341215 28.16855 0 51.002604-22.834055 51.002604-51.003628 0-14.998599-6.475482-28.483728-16.780175-37.815257l129.140219-180.52247c7.164167 3.837398 15.34857 6.02011 24.045649 6.02011 28.16855 0 51.003628-22.834055 51.003628-51.002604S931.239851 258.054287 903.071302 258.054287z" fill="#56abe4"></path></g></g></svg>