<?xml version="1.0" standalone="no"?><!DOCTYPE svg PUBLIC "-//W3C//DTD SVG 1.1//EN" "http://www.w3.org/Graphics/SVG/1.1/DTD/svg11.dtd"><svg width="64" height="64" viewBox="0 0 64 64" version="1.1" xmlns="http://www.w3.org/2000/svg" xmlns:xlink="http://www.w3.org/1999/xlink"><defs><style type="text/css"><![CDATA[
@font-face { font-family: ifont; src: url("//at.alicdn.com/t/font_1442373896_4754455.eot?#iefix") format("embedded-opentype"), url("//at.alicdn.com/t/font_1442373896_4754455.woff") format("woff"), url("//at.alicdn.com/t/font_1442373896_4754455.ttf") format("truetype"), url("//at.alicdn.com/t/font_1442373896_4754455.svg#ifont") format("svg"); }

]]></style></defs><g class="transform-group"><g transform="scale(0.0625, 0.0625)"><path d="M386.098361 251.803279C172.904918 251.803279 0 424.708197 0 637.901639c0 213.193443 172.904918 386.098361 386.098361 386.098361 213.193443 0 386.098361-172.904918 386.098361-386.098361C772.196721 424.708197 599.291803 251.803279 386.098361 251.803279zM386.098361 889.704918c-139.331148 0-251.803279-112.472131-251.803279-251.803279 0-139.331148 112.472131-251.803279 251.803279-251.803279 139.331148 0 251.803279 112.472131 251.803279 251.803279C637.901639 777.232787 525.429508 889.704918 386.098361 889.704918zM386.098361 637.901639m-100.721311 0a6 6 0 1 0 201.442623 0 6 6 0 1 0-201.442623 0Z" fill="#f4c600"></path></g></g></svg>