<?xml version="1.0" encoding="utf-8"?>
<!DOCTYPE svg PUBLIC "-//W3C//DTD SVG 1.1//EN" "http://www.w3.org/Graphics/SVG/1.1/DTD/svg11.dtd">
<svg style="width:308px;height:308px;" version="1.1" id="图形" xmlns="http://www.w3.org/2000/svg" xmlns:xlink="http://www.w3.org/1999/xlink" x="0px" y="0px" width="1024px" height="1024px" viewBox="0 0 1024 1024" enable-background="new 0 0 1024 1024" xml:space="preserve">
  <path class="svgpath" data-index="path_0" fill="#d81e06" d="M513.291398 227.050948c213.783584-2.481788 393.397344 53.168376 400.8804 124.199868 7.48304 71.031539-159.955264 130.715707-373.75952 133.197932C326.628694 486.930973 147.01493 431.280391 139.531884 360.24888 132.048839 289.217369 299.487142 229.533173 513.291398 227.050948z" />
<path class="svgpath" data-index="path_1" fill="#d81e06" d="M139.531884 521.283184c-0.351414-3.05824-0.351414-6.116479-0.020672-9.109083l0.020672-140.666762 0.227386 0c-0.330742 2.991653-0.31007 5.984257 0.020672 8.997788 7.462374 71.031539 187.096801 126.704257 400.880385 124.222032 204.564144-2.393322 366.689904-57.135526 373.75952-124.089058l0 140.644607-0.248 0c-6.883584 66.997897-169.07136 121.850617-373.75952 124.222022-213.783584 2.459909-393.397348-53.19054-400.880393-124.222022z" />
<path class="svgpath" data-index="path_2" fill="#d81e06" d="M139.552556 685.952171c-0.351413-3.036361-0.351413-6.094601-0.020672-9.109083l0.020672-140.666762 0.227386 0c-0.330742 2.991653-0.31007 6.006135 0.020672 9.020618 7.462374 71.031539 187.096801 126.682093 400.880385 124.222032 204.564144-2.371444 366.689904-57.15769 373.75952-124.089058l0 140.622443-0.248 0c-6.883584 67.042225-169.07136 121.850617-373.75952 124.222032-213.783584 2.481788-393.397348-53.168376-400.880394-124.222032z" />
<path class="svgpath" data-index="path_3" fill="#d81e06" d="M139.552556 850.643322c-0.351413-3.05824-0.351413-6.094601-0.020672-9.109083l0.020672-140.666762 0.227386 0c-0.330742 2.991653-0.31007 6.006135 0.020672 8.997788 7.462374 71.053703 187.096801 126.704257 400.880385 124.222032 204.564144-2.371444 366.689904-57.135526 373.75952-124.089058l0 140.644607-0.248 0C907.308886 917.663374 745.12111 972.493939 540.43295 974.865349 326.649366 977.34757 147.035601 921.674833 139.552556 850.643322z" />
<path class="svgpath" data-index="path_4" fill="#d81e06" d="M709.380262 64.908514l-16.413088 0 0 107.93243 77.124992 0 10.459712-17.61936-71.171616 0 0-90.313098zm-225.111504 5.341218l-60.195104 102.591222 19.90656 0 18.149488-30.98344 38.82088 0 10.190992-17.641524-38.800208 0 21.146832-35.549016 49.508 84.173979 19.885888 0-60.691216-102.85717c-3.741536-6.692931-13.68448-6.692931-17.922112 0.265948zm116.690032 12.255979l69.021792 0 10.191008-17.597196-79.708912 0.044318c-27.741008 0-46.014528 24.113007-46.014528 53.921854 0 29.786683 18.27352 53.944018 46.014528 53.944018l67.430096-0.088656 10.542416-17.486377-77.4764 0c-18.707616 0-29.642784-16.289621-29.642784-36.368985 0-20.07946 10.935168-36.368985 29.642784-36.368985zm-352.302605-17.552869l-71.150946 0C149.764226 64.952832 131.511382 89.065868 131.511382 118.874724c0 29.786683 18.252843 53.944018 45.993858 53.944018l71.150946 0c27.720342 0 45.993853-24.157335 45.993853-53.944018 0-29.808847-18.27351-53.921854-45.993853-53.921854zm0 90.290934l-71.150946 0c-18.707614 0-29.642782-16.289621-29.642782-36.368985 0-20.07946 10.935168-36.368985 29.642782-36.368985l71.150946 0c18.686942 0 29.62211 16.289621 29.62211 36.368985 0 20.07946-10.935168 36.368985-29.62211 36.368985zm549.962509-27.81419l86.943888 0 10.459728-17.641524-97.403616 0c2.831968-15.624703 13.105664-27.282256 28.857264-27.282256l69.042464 0 10.17032-17.597196-79.708896 0.044318c-27.741024 0-45.993856 24.135171-45.993856 53.921854 0 29.786683 18.252832 53.944018 45.993856 53.944018l67.430096-0.088656 10.563072-17.464213-77.497056 0c-15.95832-0.022164-26.190656-11.879192-28.857264-27.836354zm-410.409904 1.573353c16.475088 0 29.808144-14.339291 29.808144-32.047307 0-17.663688-13.333056-32.00298-29.808144-32.00298l-83.719168-0.044318 0 107.93243 18.418224 0 0-90.313098 65.300944 0c7.441696 0 13.457072 6.449414 13.457072 14.450111 0 7.979009-6.015376 14.450111-13.457072 14.450111l-52.360656 0 59.058176 61.302057 23.772112 0-42.29368-43.682696 11.824048-0.044318z" />

</svg>
