<?xml version="1.0" encoding="utf-8"?>
<!DOCTYPE svg PUBLIC "-//W3C//DTD SVG 1.1//EN" "http://www.w3.org/Graphics/SVG/1.1/DTD/svg11.dtd">
<svg style="width:308px;height:308px;" version="1.1" id="图形" xmlns="http://www.w3.org/2000/svg" xmlns:xlink="http://www.w3.org/1999/xlink" x="0px" y="0px" width="1024px" height="1024px" viewBox="0 0 1024 1024" enable-background="new 0 0 1024 1024" xml:space="preserve">
  <path class="svgpath" data-index="path_0" fill="#a9b7b7" d="M429.056939 931.690618c-204.353225 0-370.015242-69.02405-370.015242-154.173358 0-2.960425-0.174985-6.577812 0-9.541307-0.35918-0.25685 0.355087 0.25685 0 0L59.041698 677.728532c66.630536 65.152882 207.278857 110.066815 370.015242 110.066815 43.236733 0 84.914972-3.170203 124.059504-9.049097 1.067308-14.352893 3.327792-28.372188 6.656607-41.97295-40.646746 6.39771-84.693938 9.908674-130.71611 9.908674-204.353225 0-370.015242-69.026096-370.015242-154.173358 0-2.960425-0.077771-6.574742 0-9.53926l0 0 0-90.249467c66.630536 65.152882 207.278857 110.066815 370.015242 110.066815s303.384705-44.913932 370.015242-110.066815l0 48.620347c3.41068-0.134053 6.833639-0.222057 10.278087-0.222057 10.4367 0 20.723997 0.638543 30.834262 1.848091L840.184531 171.102936l0 0C809.060673 77.901231 634.028241 6.65149 429.056939 6.65149S49.053206 77.901231 17.929348 171.102936l0 0 0 637.248585 0 0c31.124881 93.201705 200.039989 169.764452 411.128615 167.521365 63.011102-0.669242 124.752282-7.766894 178.127933-19.801998-8.662287-11.325953-18.448164-25.438369-25.15696-38.135552C535.404036 926.767492 483.611439 931.690618 429.056939 931.690618zM429.056939 47.76384c204.353225 0 370.015242 69.026096 370.015242 154.173358S633.411187 356.110557 429.056939 356.110557 59.041698 287.084461 59.041698 201.937199 224.703715 47.76384 429.056939 47.76384zM59.041698 397.961734 59.041698 287.156092c66.630536 65.152882 207.278857 110.066815 370.015242 110.066815s303.384705-44.913932 370.015242-110.066815l0 110.805642c-0.355087 0.25685 0.35918-0.25685 0 0 0.394996 2.919493 0 6.579859 0 9.53926 0 85.146239-165.662017 154.173358-370.015242 154.173358S59.041698 492.648256 59.041698 407.502018C59.041698 404.541593 58.646702 400.881227 59.041698 397.961734 58.682517 397.705907 59.396785 398.219607 59.041698 397.961734zM799.073204 582.231551c-113.52866 0-205.563796 92.035136-205.563796 205.563796 0 113.530706 92.035136 205.563796 205.563796 205.563796 113.530706 0 205.563796-92.03309 205.563796-205.563796C1004.637 674.266687 912.603911 582.231551 799.073204 582.231551zM799.073204 952.246793c-90.824565 0-164.451446-73.626881-164.451446-164.451446s73.626881-164.451446 164.451446-164.451446 164.451446 73.626881 164.451446 164.451446S889.897769 952.246793 799.073204 952.246793zM819.629379 685.013449l-41.11235 0 0 82.225723-82.225723 0 0 41.11235 82.225723 0 0 82.225723 41.11235 0 0-82.225723 82.225723 0 0-41.11235-82.225723 0L819.629379 685.013449z" />

</svg>
