<?xml version="1.0" encoding="utf-8"?>
<!DOCTYPE svg PUBLIC "-//W3C//DTD SVG 1.1//EN" "http://www.w3.org/Graphics/SVG/1.1/DTD/svg11.dtd">
<svg style="width:308px;height:308px;" version="1.1" id="图形" xmlns="http://www.w3.org/2000/svg" xmlns:xlink="http://www.w3.org/1999/xlink" x="0px" y="0px" width="1024px" height="1024px" viewBox="0 0 1024 1024" enable-background="new 0 0 1024 1024" xml:space="preserve">
  <path class="svgpath" data-index="path_0" fill="#d81e06" d="M670.272 851.136 353.728 851.136c-171.008 0-310.144-139.136-310.144-310.144L43.584 534.528c0-171.008 139.136-310.144 310.144-310.144l316.608 0c171.008 0 310.144 139.136 310.144 310.144l0 6.464C980.416 712 841.28 851.136 670.272 851.136zM353.728 327.744c-113.984 0-206.72 92.736-206.72 206.72l0 6.464c0 113.984 92.736 206.72 206.72 206.72l316.608 0c113.984 0 206.72-92.736 206.72-206.72L877.056 534.528c0-113.984-92.736-206.72-206.72-206.72L353.728 327.808z" />

</svg>
