<?xml version="1.0" standalone="no"?><!DOCTYPE svg PUBLIC "-//W3C//DTD SVG 1.1//EN" "http://www.w3.org/Graphics/SVG/1.1/DTD/svg11.dtd"><svg width="64" height="64" viewBox="0 0 64 64" version="1.1" xmlns="http://www.w3.org/2000/svg" xmlns:xlink="http://www.w3.org/1999/xlink"><defs><style type="text/css"><![CDATA[
@font-face { font-family: ifont; src: url("//at.alicdn.com/t/font_1442373896_4754455.eot?#iefix") format("embedded-opentype"), url("//at.alicdn.com/t/font_1442373896_4754455.woff") format("woff"), url("//at.alicdn.com/t/font_1442373896_4754455.ttf") format("truetype"), url("//at.alicdn.com/t/font_1442373896_4754455.svg#ifont") format("svg"); }

]]></style></defs><g class="transform-group"><g transform="scale(0.0625, 0.0625)"><path d="M622.826 702.736c-22.11-3.518-22.614-64.314-22.614-64.314s64.966-64.316 79.126-150.802c38.09 0 61.618-91.946 23.522-124.296C704.452 329.27 751.822 96 512 96s-192.45 233.27-190.864 267.324c-38.094 32.35-14.57 124.296 23.522 124.296 14.158 86.486 79.128 150.802 79.128 150.802s-0.504 60.796-22.614 64.314C329.952 714.068 64 831.372 64 960l896 0C960 831.372 694.046 714.068 622.826 702.736L622.826 702.736z" fill="#a9b7b7"></path></g></g></svg>