<?xml version="1.0" encoding="utf-8"?>
<!DOCTYPE svg PUBLIC "-//W3C//DTD SVG 1.1//EN" "http://www.w3.org/Graphics/SVG/1.1/DTD/svg11.dtd">
<svg style="width:308px;height:308px;" version="1.1" id="图形" xmlns="http://www.w3.org/2000/svg" xmlns:xlink="http://www.w3.org/1999/xlink" x="0px" y="0px" width="1024px" height="1024px" viewBox="0 0 1024 1024" enable-background="new 0 0 1024 1024" xml:space="preserve">
  <path class="svgpath" data-index="path_0" fill="#9d55b8" d="M571.896054 791.394315c14.085364-15.997346 21.144419-38.394449 21.144419-67.178005 0-29.547966-6.92295-52.358485-20.698239-68.425416-13.775289-16.051581-32.670389-24.090675-56.624922-24.090675-23.601478 0-42.708411 8.468882-57.314659 25.419949-14.673789 16.949021-21.942631 39.171138-21.942631 66.681702 0 27.647687 7.129666 49.864688 21.390023 66.557882 14.259333 16.726963 32.914969 25.053606 55.933139 25.053606C538.425407 815.413358 557.804551 807.428499 571.896054 791.394315zM945.722055 287.290145 515.150377 97.559966 89.751724 287.72505 515.54846 476.389968 945.722055 287.290145zM515.210755 119.594819l380.514604 167.673837L515.580183 454.380698l-376.29534-166.731372L515.210755 119.594819zM931.292846 567.20123 931.292846 300.584939 521.512533 481.183134l0 86.019119-8.52449 0 0-86.028329L101.892726 300.601312l0 266.599917L73.190881 567.20123 73.190881 939.743014l886.829394 0L960.020275 567.20123 931.292846 567.20123zM122.045521 331.456041l370.789727 162.858158 0 72.887031-370.789727 0L122.045521 331.456041zM338.236 825.609581c-14.7444 10.746762-35.200106 16.099676-61.367117 16.099676-9.152826 0-19.831463-1.24127-32.013399-3.76372-12.181936-2.521426-21.078925-5.631254-26.651055-9.367345l0-33.726126c7.078499 6.15007 16.528096 11.160177 28.36414 15.098883 11.855488 3.943822 23.083664 5.91471 33.745928 5.91471 32.447299 0 48.645877-11.443633 48.645877-34.286897 0-6.426363-1.731505-12.161994-5.226239-17.314341-3.496781-5.114484-8.271723-9.640568-14.330967-13.579273-6.056174-3.937682-17.459342-10.021238-34.175734-18.181081-23.190092-11.438517-38.454353-22.048155-45.826552-31.862685-7.35378-9.809413-11.040903-21.007453-11.040903-33.621748 0-19.007913 7.718092-34.089399 23.137901-45.222971 15.41981-11.143805 34.870587-16.70445 58.35438-16.70445 23.016123 0 39.835873 2.761903 50.601495 8.273431l0 32.228005c-13.949258-9.553587-31.532426-14.341636-52.83444-14.341636-14.136531 0-25.646127 2.935865-34.557443 8.791224-8.896989 5.860475-13.360833 14.019295-13.360833 24.471344 0 9.259898 3.099721 16.797571 9.259254 22.597671 6.176929 5.827729 19.554136 13.741979 40.147994 23.828708 22.685581 10.714016 38.572038 21.465894 47.640949 32.211633 9.034117 10.714016 13.568573 22.805402 13.568573 36.214806C360.316782 799.449781 352.944582 814.896588 338.236 825.609581zM631.250246 897.281947c-7.266795 2.28095-15.991861 3.419889-26.165988 3.419889-14.32585 0-27.861676-3.452635-40.634084-10.332323-12.805155-6.91141-30.490657-23.12058-53.089254-48.660256-30.944001 0.212848-56.383412-10.67513-76.35405-32.657794-19.934822-21.937638-29.903256-49.585325-29.903256-82.902128 0-37.152155 10.106586-66.612117 30.283941-88.381933 20.213172-21.792329 47.795474-32.67519 82.824681-32.67519 31.56415 0 57.175483 10.691503 76.838094 32.070416 19.657494 21.388123 29.4888 49.225121 29.4888 83.523275 0 30.413684-6.92295 55.985082-20.76885 76.68759-13.8459 20.701484-33.503394 34.041304-58.978623 40.054251 12.844042 13.823843 23.814334 23.218818 32.845381 28.333302 9.036164 5.048993 19.13968 7.603165 30.290081 7.603165 9.166129 0 16.954832-1.344624 23.323127-4.00829L631.250246 897.281947zM809.426411 837.874929 687.493459 837.874929 687.493459 608.927563l29.870508 0 0 202.788589 92.062444 0L809.426411 837.874929zM911.134935 567.20123 541.671467 567.20123l0-72.891124 369.463468-162.836669L911.134935 567.20123z" />

</svg>
