<?xml version="1.0" encoding="utf-8"?>
<!DOCTYPE svg PUBLIC "-//W3C//DTD SVG 1.1//EN" "http://www.w3.org/Graphics/SVG/1.1/DTD/svg11.dtd">
<svg style="width:308px;height:308px;" version="1.1" id="图形" xmlns="http://www.w3.org/2000/svg" xmlns:xlink="http://www.w3.org/1999/xlink" x="0px" y="0px" width="1024px" height="1024px" viewBox="0 0 1024 1024" enable-background="new 0 0 1024 1024" xml:space="preserve">
  <path class="svgpath" data-index="path_0" fill="#ea8010" d="M20.032 673.408 20.032 277.696l135.168 0c135.552 0 203.264 64.32 203.264 192.896 0 61.632-18.496 110.848-55.488 147.648-36.992 36.8-86.272 55.168-147.776 55.168L20.032 673.408zM105.984 350.272l0 250.816 42.56 0c37.248 0 66.496-11.584 87.68-34.752C257.408 543.168 268.032 511.616 268.032 471.68c0-37.696-10.496-67.392-31.552-88.96C215.424 361.088 185.984 350.272 148.032 350.272L105.984 350.272z" />
<path class="svgpath" data-index="path_1" fill="#ea8010" d="M421.824 673.408 421.824 277.696l138.88 0c42.56 0 75.328 8.128 98.176 24.256 22.912 16.192 34.304 38.976 34.304 68.416 0 21.312-6.976 40-20.864 56-13.888 16-31.68 27.136-53.312 33.408l0 1.088c27.136 3.52 48.832 13.888 65.024 31.168s24.32 38.336 24.32 63.168c0 36.224-12.48 64.96-37.504 86.208-25.024 21.248-59.136 31.872-102.464 31.872L421.824 673.28zM507.776 343.36l0 93.824 37.76 0c17.728 0 31.68-4.48 41.92-13.376 10.176-8.896 15.296-21.184 15.296-36.864 0-29.056-20.928-43.584-62.784-43.584L507.776 343.36zM507.776 503.424l0 104.32 46.592 0c19.84 0 35.456-4.8 46.72-14.336 11.264-9.536 16.896-22.656 16.896-39.168 0-15.808-5.568-28.224-16.64-37.248C590.208 507.904 574.72 503.424 554.816 503.424L507.776 503.424z" />
<path class="svgpath" data-index="path_2" fill="#ea8010" d="M841.664 601.088l161.792 0 0 72.32-253.824 0 0-29.824c0-20.224 3.264-38.4 9.856-54.528 6.592-16.128 14.784-30.528 24.768-43.328 9.92-12.8 20.8-24.064 32.576-33.92 11.776-9.856 23.04-18.688 33.664-26.624 11.2-8.256 20.992-16.192 29.376-23.744 8.448-7.552 15.552-15.04 21.312-22.464 5.76-7.424 10.048-14.976 12.928-22.656 2.816-7.616 4.224-15.744 4.224-24.448 0-16.896-4.608-29.696-13.824-38.336-9.216-8.64-23.296-12.992-42.304-12.992-32.832 0-64.192 13.504-94.208 40.576L768 304.448c33.152-22.272 70.592-33.408 112.256-33.408 19.328 0 36.672 2.624 52.032 7.872 15.36 5.248 28.352 12.736 38.976 22.464 10.624 9.728 18.752 21.568 24.32 35.456 5.568 13.888 8.384 29.376 8.384 46.464 0 18.24-2.688 34.432-8.128 48.576-5.44 14.144-12.608 27.072-21.568 38.656-8.96 11.584-19.264 22.208-30.976 31.872-11.712 9.664-23.872 19.008-36.48 28.032-8.512 6.272-16.704 12.48-24.64 18.624-7.872 6.144-14.848 12.224-20.864 18.24-6.016 5.952-10.816 11.84-14.336 17.536C843.456 590.528 841.664 595.904 841.664 601.088z" />

</svg>
