<?xml version="1.0" encoding="utf-8"?>
<!DOCTYPE svg PUBLIC "-//W3C//DTD SVG 1.1//EN" "http://www.w3.org/Graphics/SVG/1.1/DTD/svg11.dtd">
<svg style="width:308px;height:308px;" version="1.1" id="图形" xmlns="http://www.w3.org/2000/svg" xmlns:xlink="http://www.w3.org/1999/xlink" x="0px" y="0px" width="1536px" height="1024px" viewBox="0 0 1536 1024" enable-background="new 0 0 1536 1024" xml:space="preserve">
  <path class="svgpath" data-index="path_0" fill="#1196db" d="M1365.333333 1024 170.666667 1024C76.401778 1024 0 947.598222 0 853.333333L0 170.666667C0 76.430222 76.401778 0 170.666667 0L1365.333333 0C1459.598222 0 1536 76.430222 1536 170.666667L1536 853.333333C1536 947.598222 1459.598222 1024 1365.333333 1024ZM711.111111 512 654.222222 512 654.222222 483.555556 398.222222 483.555556 398.222222 398.222222 654.222222 398.222222 711.111111 398.222222 711.111111 341.333333 654.222222 341.333333 654.222222 284.444444 369.777778 284.444444 369.777778 341.333333 312.888889 341.333333 312.888889 398.222222 312.888889 540.444444 369.777778 540.444444 369.777778 568.888889 625.777778 568.888889 625.777778 654.222222 312.888889 654.222222 312.888889 711.111111 369.777778 711.111111 369.777778 739.555556 654.222222 739.555556 654.222222 711.111111 682.666667 711.111111 711.111111 711.111111 711.111111 512ZM1223.111111 284.444444 1080.888889 284.444444 1080.888889 483.555556 967.111111 483.555556 967.111111 284.444444 824.888889 284.444444 824.888889 739.555556 967.111111 739.555556 967.111111 540.444444 1080.888889 540.444444 1080.888889 739.555556 1223.111111 739.555556 1223.111111 284.444444Z" />

</svg>
