<?xml version="1.0" standalone="no"?><!DOCTYPE svg PUBLIC "-//W3C//DTD SVG 1.1//EN" "http://www.w3.org/Graphics/SVG/1.1/DTD/svg11.dtd"><svg width="64" height="64" viewBox="0 0 64 64" version="1.1" xmlns="http://www.w3.org/2000/svg" xmlns:xlink="http://www.w3.org/1999/xlink"><defs><style type="text/css"><![CDATA[
@font-face { font-family: ifont; src: url("//at.alicdn.com/t/font_1442373896_4754455.eot?#iefix") format("embedded-opentype"), url("//at.alicdn.com/t/font_1442373896_4754455.woff") format("woff"), url("//at.alicdn.com/t/font_1442373896_4754455.ttf") format("truetype"), url("//at.alicdn.com/t/font_1442373896_4754455.svg#ifont") format("svg"); }

]]></style></defs><g class="transform-group"><g transform="scale(0.0625, 0.0625)"><path d="M819.2 422.4c-12.8-12.8-25.6-19.2-44.8-19.2-19.2-6.4-44.8-6.4-76.8-6.4l-19.2 0 0 230.4 32 0c32 0 57.6 0 76.8-6.4 12.8-6.4 32-12.8 38.4-19.2 12.8-12.8 19.2-25.6 25.6-38.4 6.4-12.8 6.4-32 6.4-51.2 0-19.2-6.4-38.4-12.8-51.2C844.8 448 832 435.2 819.2 422.4zM512 0C230.4 0 0 230.4 0 512c0 281.6 230.4 512 512 512 281.6 0 512-230.4 512-512C1024 230.4 793.6 0 512 0zM300.8 396.8 160 396.8l0 89.6 134.4 0L294.4 512 160 512l0 115.2 134.4 0 0 25.6L134.4 652.8 134.4 364.8l166.4 0L300.8 396.8zM576 659.2 569.6 659.2l-192-217.6 0 217.6L352 659.2 352 364.8l6.4 0 192 224L550.4 364.8 576 364.8 576 659.2zM876.8 588.8c-12.8 19.2-25.6 38.4-44.8 51.2-19.2 12.8-51.2 19.2-89.6 19.2l-89.6 0L652.8 364.8l57.6 0c38.4 0 70.4 0 89.6 6.4C819.2 384 832 390.4 844.8 403.2c12.8 12.8 25.6 32 32 44.8 6.4 19.2 12.8 38.4 12.8 64C889.6 544 883.2 569.6 876.8 588.8z" fill="#000000"></path></g></g></svg>