<?xml version="1.0" encoding="utf-8"?>
<!DOCTYPE svg PUBLIC "-//W3C//DTD SVG 1.1//EN" "http://www.w3.org/Graphics/SVG/1.1/DTD/svg11.dtd">
<svg style="width:308px;height:308px;" version="1.1" id="图形" xmlns="http://www.w3.org/2000/svg" xmlns:xlink="http://www.w3.org/1999/xlink" x="0px" y="0px" width="1024px" height="1024px" viewBox="0 0 1024 1024" enable-background="new 0 0 1024 1024" xml:space="preserve">
  <path class="svgpath" data-index="path_0" fill="#ea8010" d="M705.062912 819.6096c1.942528-24.727552-4.985856-32.98816-30.343168-31.878144-12.765184 0.55808-25.41056 3.739648-39.415808 5.94432-1.257472-5.317632-2.643968-11.177984-4.196352-17.741824 24.68864-8.987648 48.601088-15.166464 74.102784-9.035776 17.799168 4.28032 29.3888 15.24224 29.978624 33.359872 1.16224 35.764224 0.342016 71.589888 0.342016 108.638208-9.858048-1.750016-23.283712 8.256512-25.488384-8.768512-14.982144 3.884032-29.96736 10.002432-45.341696 11.222016-21.740544 1.726464-35.643392-9.84576-39.67488-28.38016-4.57728-21.008384 3.856384-42.29632 22.933504-49.32608C665.739264 827.086848 684.93824 824.377344 705.062912 819.6096zM705.65888 842.102784c-13.63968 1.984512-25.517056 2.788352-36.886528 5.62176-11.44832 2.857984-17.390592 15.550464-14.03904 26.544128 3.561472 11.669504 13.801472 17.173504 26.287104 14.128128 20.88448-5.101568 24.761344-10.153984 24.640512-32.098304C705.639424 852.772864 705.65888 849.247232 705.65888 842.102784z" />
<path class="svgpath" data-index="path_1" fill="#ea8010" d="M471.514112 908.68736c-7.411712 0-14.036992 0-21.410816 0-1.26976-3.451904-2.60608-7.084032-4.08576-11.102208-1.457152 0.167936-2.94912-0.106496-3.78368 0.507904-12.659712 9.3184-26.437632 14.682112-42.5216 13.89568-20.175872-0.990208-32.918528-9.52832-37.848064-26.28608-5.60128-19.050496 0.53248-40.410112 17.709056-49.14176 13.176832-6.700032 28.648448-9.064448 43.268096-12.650496 5.945344-1.462272 12.345344-1.057792 18.382848-1.48992 3.224576-25.99424-4.603904-35.29216-29.179904-34.837504-6.667264 0.123904-13.370368 1.18784-19.950592 2.394112-6.486016 1.185792-12.84096 3.099648-19.158016 4.672512-6.994944-18.209792-7.365632-19.951616 9.91744-23.638016 17.604608-3.756032 36.205568-5.883904 54.074368-4.595712 22.153216 1.594368 32.979968 12.434432 34.363392 34.383872 2.034688 32.20992 1.106944 64.60416 1.330176 96.9216C472.64256 901.187584 471.938048 904.656896 471.514112 908.68736zM441.268224 842.320896c-12.544 1.737728-24.568832 2.419712-36.057088 5.26848-11.58656 2.87232-16.922624 14.778368-13.728768 26.645504 2.902016 10.779648 12.156928 17.248256 23.59296 14.449664C443.510784 881.729536 445.376512 876.96896 441.268224 842.320896z" />
<path class="svgpath" data-index="path_2" fill="#ea8010" d="M516.37248 397.371392c-27.625472-27.677696-59.507712-51.800064-74.201088-90.276864-6.897664-18.061312-7.097344-36.601856 6.44608-50.597888 22.32832-23.077888 46.794752-44.091392 70.518784-65.801216 10.246144-9.37472 21.390336-17.808384 31.248384-27.558912 27.537408-27.237376 40.348672-59.482112 31.465472-98.82624 16.684032 17.732608 19.306496 38.895616 14.205952 60.926976-8.712192 37.650432-33.985536 64.251904-61.99808 88.742912-13.479936 11.785216-27.7248 22.914048-39.853056 35.986432-28.116992 30.309376-30.062592 60.275712-7.616512 95.058944 10.805248 16.743424 21.963776 33.255424 32.965632 49.870848C518.490112 395.720704 517.43232 396.546048 516.37248 397.371392z" />
<path class="svgpath" data-index="path_3" fill="#ea8010" d="M488.697856 768.753664c1.69472-0.883712 2.076672-1.2544 2.469888-1.265664 30.697472-0.950272 30.408704-0.866304 38.908928 28.663808 7.353344 25.534464 15.454208 50.855936 23.228416 76.271616 1.215488 0.186368 2.430976 0.369664 3.648512 0.55808 8.571904-34.830336 17.142784-69.661696 25.877504-105.150464 8.580096 0 18.241536 0 31.045632 0-7.24992 27.517952-13.500416 53.833728-21.241856 79.706112-5.11488 17.101824-12.817408 33.416192-18.492416 50.369536-3.154944 9.42592-8.723456 12.88192-18.106368 11.46368-1.317888-0.197632-2.7392-0.251904-4.031488 0.014336-15.168512 3.122176-22.01088-3.411968-26.157056-18.197504C514.393088 850.325504 501.312512 809.915392 488.697856 768.753664z" />
<path class="svgpath" data-index="path_4" fill="#ea8010" d="M711.625728 589.7728c11.266048 9.35424-6.383616 35.756032-73.781248 44.913664-364.065792 37.421056-345.452544-6.293504-345.969664-15.599616-1.47968-26.633216 67.444736-39.386112 95.2064-34.967552-18.50368 7.144448-69.377024 38.352896 1.13664 40.838144 50.593792 2.643968 101.369856 6.280192 151.898112 4.482048C587.830272 627.7376 711.151616 608.852992 711.625728 589.7728z" />
<path class="svgpath" data-index="path_5" fill="#ea8010" d="M292.98176 960.382976c-4.870144-5.919744-9.371648-11.392-15.096832-18.348032 28.853248-13.498368 31.177728-38.546432 30.774272-65.703936-0.708608-47.59552-0.149504-95.210496-0.121856-142.820352 0.002048-4.876288 0-9.749504 0-15.838208 10.99264 0 20.937728 0 31.798272 0 0.205824 3.495936 0.587776 6.956032 0.587776 10.409984 0 52.998144 0.181248 106.000384-0.161792 158.997504C340.509696 925.898752 329.798656 942.18752 292.98176 960.382976z" />
<path class="svgpath" data-index="path_6" fill="#ea8010" d="M655.855616 188.909568c-19.806208 13.238272-37.492736 24.025088-53.968896 36.416512-12.073984 9.078784-23.735296 19.267584-33.492992 30.738432-15.788032 18.54976-15.771648 32.770048-2.702336 53.635072 5.219328 8.328192 10.619904 16.575488 16.457728 24.471552 12.28288 16.616448 11.867136 34.304 0.75776 50.030592-9.141248 12.940288-22.06208 23.20896-35.414016 36.806656-0.576512-5.547008-1.037312-6.588416-0.69632-7.1424 17.33632-28.300288 16.9216-35.110912-3.888128-62.27968-25.669632-33.519616-30.267392-63.27808-10.683392-91.322368 9.228288-13.212672 21.833728-25.780224 35.7376-33.641472 25.116672-14.195712 52.34176-24.671232 78.744576-36.576256C648.479744 189.251584 650.728448 189.505536 655.855616 188.909568z" />
<path class="svgpath" data-index="path_7" fill="#ea8010" d="M617.350144 567.25504c-150.08256 44.24192-208.36864-9.23648-208.36864-9.23648l19.509248-16.979968c7.53152 5.41184 47.147008 30.4896 132.140032 12.517376L617.350144 567.25504z" />
<path class="svgpath" data-index="path_8" fill="#ea8010" d="M443.962368 401.732608c0 0-93.933568 33.769472 6.602752 36.115456 13.717504 0.320512 197.036032-13.954048 197.036032-13.954048s-118.283264 33.727488-224.037888 30.784512C281.971712 440.5504 443.86304 401.637376 443.962368 401.732608z" />
<path class="svgpath" data-index="path_9" fill="#ea8010" d="M422.080512 469.664768c0 0-13.856768 26.8288 26.138624 27.833344 95.172608 2.39104 164.683776-14.42304 164.683776-14.42304s14.619648 18.781184 14.619648 20.699136c0 0-127.479808 29.48096-200.206336 10.935296C380.860416 502.859776 411.588608 474.925056 422.080512 469.664768z" />
<path class="svgpath" data-index="path_10" fill="#ea8010" d="M745.5488 625.528832c-242.240512 69.850112-364.668928 36.67968-364.668928 36.67968s52.02432 43.862016 182.335488 18.704384C611.576832 671.576064 698.136576 645.9904 745.5488 625.528832z" />
<path class="svgpath" data-index="path_11" fill="#ea8010" d="M648.999936 514.331648c11.027456-7.155712 21.292032-12.437504 29.868032-19.710976 12.171264-10.322944 24.544256-21.008384 34.134016-33.596416 9.066496-11.899904 10.350592-26.740736 1.562624-40.397824-8.945664-13.897728-45.938688-15.009792-50.924544-15.782912 2.368512-1.893376 7.135232-5.436416 7.135232-5.436416s18.179072-4.779008 41.93792-1.861632c32.840704 7.197696 44.138496 42.305536 24.087552 69.610496C720.273408 489.665536 678.673408 512.50688 648.999936 514.331648z" />

</svg>
