<?xml version="1.0" standalone="no"?><!DOCTYPE svg PUBLIC "-//W3C//DTD SVG 1.1//EN" "http://www.w3.org/Graphics/SVG/1.1/DTD/svg11.dtd"><svg width="64" height="64" viewBox="0 0 64 64" version="1.1" xmlns="http://www.w3.org/2000/svg" xmlns:xlink="http://www.w3.org/1999/xlink"><defs><style type="text/css"><![CDATA[
@font-face { font-family: ifont; src: url("//at.alicdn.com/t/font_1442373896_4754455.eot?#iefix") format("embedded-opentype"), url("//at.alicdn.com/t/font_1442373896_4754455.woff") format("woff"), url("//at.alicdn.com/t/font_1442373896_4754455.ttf") format("truetype"), url("//at.alicdn.com/t/font_1442373896_4754455.svg#ifont") format("svg"); }

]]></style></defs><g class="transform-group"><g transform="scale(0.0625, 0.0625)"><path d="M512.024559 62.917982c-248.018723 0-449.079972 201.061248-449.079972 449.079972 0 248.021793 201.061248 449.083042 449.079972 449.083042 248.021793 0 449.079972-201.061248 449.079972-449.083042C961.104531 263.97923 760.046353 62.917982 512.024559 62.917982zM512.024559 781.447778c-148.811234 0-269.446755-120.638591-269.446755-269.449825 0-84.85562 39.46892-160.232354 100.813057-209.57004l-40.936341 0c-16.534582 0-29.939893-13.405311-29.939893-29.936823 0-16.534582 13.405311-29.939893 29.939893-29.939893l119.753431 0c16.535605 0 29.939893 13.405311 29.939893 29.939893l0 119.753431c0 16.535605-13.405311 29.939893-29.939893 29.939893-16.534582 0-29.936823-13.405311-29.936823-29.939893l0-51.575656c-54.109362 37.892005-89.816608 100.259448-89.816608 171.328064 0 115.745141 93.827969 209.573109 209.57004 209.573109 16.534582 0 29.939893 13.401218 29.939893 29.936823C541.964452 768.043491 528.560164 781.447778 512.024559 781.447778zM721.594599 721.571063c16.534582 0 29.939893 13.401218 29.939893 29.936823 0 16.534582-13.405311 29.939893-29.939893 29.939893L601.841168 781.447778c-16.534582 0-29.939893-13.405311-29.939893-29.939893L571.901275 631.754454c0-16.535605 13.405311-29.939893 29.939893-29.939893s29.939893 13.405311 29.939893 29.939893l0 51.574632c54.105269-37.892005 89.813538-100.259448 89.813538-171.332157 0-115.742071-93.827969-209.57004-209.57004-209.57004-16.534582 0-29.936823-13.405311-29.936823-29.936823 0-16.534582 13.401218-29.939893 29.936823-29.939893 148.811234 0 269.449825 120.634498 269.449825 269.446755 0 84.859713-39.473013 160.236448-100.816127 209.573109L721.594599 721.57004z" fill="#00bb9c"></path></g></g></svg>