<?xml version="1.0" encoding="utf-8"?>
<!DOCTYPE svg PUBLIC "-//W3C//DTD SVG 1.1//EN" "http://www.w3.org/Graphics/SVG/1.1/DTD/svg11.dtd">
<svg style="width:308px;height:308px;" version="1.1" id="图形" xmlns="http://www.w3.org/2000/svg" xmlns:xlink="http://www.w3.org/1999/xlink" x="0px" y="0px" width="1024px" height="1024px" viewBox="0 0 1024 1024" enable-background="new 0 0 1024 1024" xml:space="preserve">
  <path class="svgpath" data-index="path_0" fill="#ea986c" d="M989.716522 416.707246C989.716522 522.199872 775.918544 607.719281 512.186435 607.719281 248.454326 607.719281 34.656348 522.199872 34.656348 416.707246L72.858755 416.707246C72.858755 501.10222 269.551977 569.516875 512.186435 569.516875 754.820894 569.516875 951.514115 501.102221 951.514115 416.707246L989.716522 416.707246 989.716522 416.707246Z" />
<path class="svgpath" data-index="path_1" fill="#ea986c" d="M989.716522 607.719281C989.716522 713.211905 775.918544 798.731315 512.186435 798.731315 248.454326 798.731315 34.656348 713.211905 34.656348 607.719281L72.858755 607.719281C72.858755 692.114255 269.551977 760.528909 512.186435 760.528909 754.820894 760.528909 951.514115 692.114256 951.514115 607.719281L989.716522 607.719281 989.716522 607.719281Z" />
<path class="svgpath" data-index="path_2" fill="#ea986c" d="M989.716522 798.731316C989.716522 904.223941 775.918544 989.743351 512.186435 989.743351 248.454326 989.743351 34.656348 904.223941 34.656348 798.731316L72.858755 798.731316C72.858755 883.12629 269.551977 951.540944 512.186435 951.540944 754.820894 951.540944 951.514115 883.125198 951.514115 798.731316L989.716522 798.731316 989.716522 798.731316Z" />
<path class="svgpath" data-index="path_3" fill="#ea986c" d="M512.186436 34.683177C248.454328 34.683177 34.656349 120.202586 34.656349 225.695212 34.656349 331.187836 248.454327 416.707245 512.186436 416.707245 775.918545 416.707245 989.716523 331.187836 989.716523 225.695212 989.716523 120.202586 775.918544 34.683177 512.186436 34.683177L512.186436 34.683177ZM512.186436 378.504839C269.551978 378.504839 72.858756 310.089092 72.858756 225.695212 72.858756 141.30133 269.551978 72.885583 512.186436 72.885583 754.820895 72.885583 951.514117 141.30133 951.514117 225.695212 951.514117 310.089092 754.819801 378.504839 512.186436 378.504839L512.186436 378.504839Z" />
<path class="svgpath" data-index="path_4" fill="#ea986c" d="M913.311709 241.836165C835.108235 300.55816 684.78679 340.302432 512.186436 340.302432 339.586082 340.302432 189.264638 300.55816 111.061164 241.836165L111.061164 219.51136C179.691089 279.44849 333.477631 321.202322 512.186436 321.202322 690.895242 321.202322 844.681785 279.44849 913.311709 219.51136L913.311709 241.836165 913.311709 241.836165Z" />
<path class="svgpath" data-index="path_5" fill="#ea986c" d="M34.656349 225.695212 72.858756 225.695212 72.858756 817.83252 34.656349 817.83252 34.656349 225.695212 34.656349 225.695212ZM951.514117 225.695212 989.716523 225.695212 989.716523 817.83252 951.514117 817.83252 951.514117 225.695212 951.514117 225.695212Z" />
<path class="svgpath" data-index="path_6" fill="#ea986c" d="M856.008099 779.630112 894.210507 760.528909 894.210507 817.83252 856.008099 836.933722 856.008099 779.630112 856.008099 779.630112Z" />

</svg>
